HIERARCHY
ROOT Hips
{
 OFFSET 0.000000 0.000000 0.000000
 CHANNELS 6 Xposition Yposition Zposition Yrotation Xrotation Zrotation
 JOINT Chest
 {
  OFFSET 0.000000 10.383400 0.001500
  CHANNELS 3 Yrotation Xrotation Zrotation
  JOINT Chest2
  {
   OFFSET 0.000000 10.418200 -0.003100
   CHANNELS 3 Yrotation Xrotation Zrotation
   JOINT Chest3
   {
    OFFSET 0.000000 10.375100 0.000000
    CHANNELS 3 Yrotation Xrotation Zrotation
    JOINT Chest4
    {
     OFFSET 0.000000 10.364600 0.000000
     CHANNELS 3 Yrotation Xrotation Zrotation
     JOINT Neck
     {
      OFFSET 0.000000 15.642200 0.000000
      CHANNELS 3 Yrotation Xrotation Zrotation
      JOINT Head
      {
       OFFSET 0.000000 9.697300 -0.006500
       CHANNELS 3 Yrotation Xrotation Zrotation
       End Site
       {
        OFFSET 0.000000 18.492200 -0.003400
       }
      }
     }
     JOINT RightCollar
     {
      OFFSET -3.166800 10.349300 0.000000
      CHANNELS 3 Yrotation Xrotation Zrotation
      JOINT RightShoulder
      {
       OFFSET -14.729700 0.000000 0.000000
       CHANNELS 3 Yrotation Xrotation Zrotation
       JOINT RightElbow
       {
        OFFSET 0.000000 -32.224300 0.000000
        CHANNELS 3 Yrotation Xrotation Zrotation
        JOINT RightWrist
        {
         OFFSET 0.000000 -26.084100 0.000000
         CHANNELS 3 Yrotation Xrotation Zrotation
         End Site
         {
          OFFSET 0.000000 -19.319400 0.000000
         }
        }
       }
      }
     }
     JOINT LeftCollar
     {
      OFFSET 3.166800 10.349300 0.000000
      CHANNELS 3 Yrotation Xrotation Zrotation
      JOINT LeftShoulder
      {
       OFFSET 14.729700 0.000000 0.000000
       CHANNELS 3 Yrotation Xrotation Zrotation
       JOINT LeftElbow
       {
        OFFSET 0.000000 -32.224300 0.000000
        CHANNELS 3 Yrotation Xrotation Zrotation
        JOINT LeftWrist
        {
         OFFSET 0.000000 -26.084100 0.000000
         CHANNELS 3 Yrotation Xrotation Zrotation
         End Site
         {
          OFFSET 0.000000 -19.319400 0.000000
         }
        }
       }
      }
     }
    }
   }
  }
 }
 JOINT RightHip
 {
  OFFSET -8.428900 -0.007500 -0.000800
  CHANNELS 3 Yrotation Xrotation Zrotation
  JOINT RightKnee
  {
   OFFSET 0.000000 -43.834600 0.000700
   CHANNELS 3 Yrotation Xrotation Zrotation
   JOINT RightAnkle
   {
    OFFSET 0.000000 -42.757000 0.001200
    CHANNELS 3 Yrotation Xrotation Zrotation
    JOINT RightToe
    {
     OFFSET 0.000000 -6.946900 15.649300
     CHANNELS 3 Yrotation Xrotation Zrotation
     End Site
     {
      OFFSET 0.000000 -1.580800 6.825800
     }
    }
   }
  }
 }
 JOINT LeftHip
 {
  OFFSET 8.428900 -0.007500 -0.000800
  CHANNELS 3 Yrotation Xrotation Zrotation
  JOINT LeftKnee
  {
   OFFSET 0.000000 -43.834600 0.000700
   CHANNELS 3 Yrotation Xrotation Zrotation
   JOINT LeftAnkle
   {
    OFFSET 0.000000 -42.757000 0.001200
    CHANNELS 3 Yrotation Xrotation Zrotation
    JOINT LeftToe
    {
     OFFSET 0.000000 -6.946900 15.649300
     CHANNELS 3 Yrotation Xrotation Zrotation
     End Site
     {
      OFFSET 0.000000 -1.580800 6.825800
     }
    }
   }
  }
 }
}
MOTION
Frames: 12
Frame Time: 0.008333
127.394431 126.959357 15.351334 -12.677525 -28.871585 -2.705826 -2.410329 23.075855 1.668716 -0.368099 3.322549 0.269185 -0.620805 5.441246 0.491009 -2.035272 19.337329 1.428474 2.237004 9.446270 -1.995038 5.318662 -18.142917 -4.911887 -1.008428 -5.480462 -4.645135 2.408499 -11.076330 4.110418 -58.557196 -40.444697 87.366014 -7.991589 -25.664382 -18.420067 -7.379603 -5.175730 -1.678417 -1.208638 -2.743724 -1.735509 178.904271 -80.301550 166.829804 -19.804284 -31.086082 32.919547 -2.504521 -43.343880 2.883321 -47.621794 75.896026 -45.451059 -0.377792 6.425569 10.784442 -0.015730 -0.013149 -0.006981 -9.350350 -36.054157 -9.383288 -4.425686 73.637785 -6.312200 -12.237019 4.525809 -0.700196 0.007937 0.004374 0.003523
127.396409 126.959245 15.351185 -12.669282 -28.883263 -2.703771 -2.400855 23.054593 1.641740 -0.365683 3.321956 0.262351 -0.612494 5.420139 0.474865 -2.036203 19.363557 1.450173 2.248504 9.462443 -1.950260 5.299502 -18.051395 -4.741555 -1.029562 -5.576245 -4.725210 2.391578 -11.009064 4.121857 -58.608127 -40.424824 87.376495 -7.977969 -25.667538 -18.502021 -7.362049 -5.226127 -1.658127 -1.209012 -2.760472 -1.747237 178.881406 -80.313109 166.893868 -19.778871 -31.067877 32.894328 -2.463120 -43.348128 2.871196 -47.669941 75.933096 -45.511134 -0.395030 6.429299 10.812045 -0.015032 -0.014795 -0.006671 -9.321844 -36.043891 -9.467569 -4.370681 73.654502 -6.188085 -12.224249 4.513016 -0.712033 0.002115 0.002179 0.000939
127.396306 126.958727 15.349344 -12.664884 -28.887669 -2.713002 -2.362353 23.012208 1.604386 -0.379139 3.343580 0.289807 -0.604804 5.402087 0.457750 -2.036959 19.380290 1.470816 2.279620 9.492553 -1.880089 5.270119 -17.966734 -4.584944 -1.056805 -5.684329 -4.813249 2.372076 -10.932026 4.138333 -58.649407 -40.405836 87.391507 -7.957498 -25.635136 -18.565028 -7.347009 -5.278541 -1.628462 -1.217619 -2.784772 -1.759783 178.887782 -80.321656 166.929297 -19.757657 -31.037803 32.874628 -2.440118 -43.361268 2.883784 -47.732133 75.963119 -45.586419 -0.381887 6.458900 10.818699 -0.008233 -0.007997 -0.003654 -9.331075 -36.044765 -9.499070 -4.409589 73.672993 -6.190429 -12.186029 4.495935 -0.732096 0.002952 0.000652 0.001310
127.397838 126.958382 15.347994 -12.644534 -28.891229 -2.719930 -2.371083 23.008320 1.591142 -0.370785 3.337257 0.272891 -0.601912 5.397556 0.451935 -2.020890 19.355642 1.451677 2.283987 9.545354 -1.795648 5.263782 -17.884132 -4.416784 -1.102882 -5.784488 -4.875548 2.343183 -10.840892 4.161391 -58.682792 -40.393551 87.414105 -7.934554 -25.567672 -18.604595 -7.345023 -5.307390 -1.566621 -1.231943 -2.814566 -1.765918 178.972978 -80.341292 166.876029 -19.748234 -31.021380 32.883419 -2.430832 -43.373356 2.892969 -47.746525 76.002374 -45.631789 -0.402278 6.473182 10.847983 -0.007862 -0.009113 -0.003489 -9.350589 -36.049389 -9.537966 -4.502494 73.688262 -6.245365 -12.147118 4.483496 -0.748207 0.005572 0.000710 0.002474
127.400690 126.958579 15.347393 -12.629864 -28.896945 -2.715107 -2.382521 23.008250 1.565855 -0.368610 3.338858 0.272335 -0.600645 5.396117 0.449053 -2.007322 19.333141 1.354077 2.307793 9.600991 -1.649219 5.264020 -17.819428 -4.264537 -1.151831 -5.903125 -4.883486 2.308129 -10.739877 4.190213 -58.710661 -40.394150 87.447369 -7.915727 -25.476255 -18.626127 -7.342303 -5.338551 -1.443185 -1.240935 -2.843566 -1.763917 179.102894 -80.341550 166.771488 -19.739279 -31.009234 32.906938 -2.417305 -43.382011 2.899269 -47.720997 76.049013 -45.654303 -0.421883 6.489582 10.894081 -0.018335 -0.013837 -0.008137 -9.355683 -36.048707 -9.580542 -4.570685 73.694851 -6.294569 -12.120310 4.480559 -0.744749 0.011616 0.001632 0.005156
127.398990 126.958539 15.344062 -12.624654 -28.893064 -2.732088 -2.355966 23.003981 1.553838 -0.381184 3.338523 0.296281 -0.599933 5.395639 0.446289 -2.004423 19.341649 1.319192 2.333395 9.640605 -1.567036 5.264889 -17.773481 -4.128792 -1.183806 -6.055974 -4.959416 2.269776 -10.633055 4.221295 -58.741305 -40.408125 87.496750 -7.899156 -25.376474 -18.636263 -7.327917 -5.406274 -1.373832 -1.251658 -2.824070 -1.772277 179.329237 -80.276572 166.569277 -19.738809 -31.005002 32.945540 -2.429263 -43.395935 2.938034 -47.763395 76.064645 -45.718932 -0.426751 6.505701 10.901509 -0.005642 -0.005249 -0.002504 -9.376368 -36.060839 -9.591547 -4.599287 73.717190 -6.284243 -12.098104 4.466079 -0.767864 0.009050 -0.000408 0.004018
127.399108 126.959445 15.342222 -12.607370 -28.895661 -2.741607 -2.363869 23.008116 1.544017 -0.374399 3.340475 0.279982 -0.597616 5.397228 0.441997 -2.003388 19.351535 1.307642 2.352477 9.667820 -1.496519 5.267679 -17.726232 -3.998634 -1.207469 -6.212040 -5.041798 2.231571 -10.519667 4.250648 -58.785856 -40.430650 87.569787 -7.882191 -25.290981 -18.643762 -7.317924 -5.460877 -1.306864 -1.252655 -2.820938 -1.777117 179.543407 -80.204016 166.367111 -19.748184 -31.008550 32.991651 -2.443667 -43.397530 2.947794 -47.754270 76.085911 -45.731937 -0.418199 6.526965 10.917258 -0.008568 -0.001371 -0.003804 -9.386221 -36.063654 -9.621219 -4.574719 73.729765 -6.226326 -12.113978 4.466925 -0.777165 0.005232 -0.001254 0.002322
127.401730 126.960389 15.340472 -12.596852 -28.896958 -2.732486 -2.359095 23.020332 1.499145 -0.375906 3.338572 0.294323 -0.597174 5.407250 0.412384 -2.003403 19.345371 1.322109 2.367657 9.693629 -1.432640 5.266010 -17.681284 -3.879762 -1.220514 -6.363747 -5.134335 2.213513 -10.394698 4.337302 -58.838269 -40.512848 87.631634 -7.862313 -25.239057 -18.660493 -7.311019 -5.482109 -1.257417 -1.203858 -2.929002 -1.713309 179.344080 -80.212996 166.526624 -19.764797 -31.016906 33.043129 -2.441265 -43.409354 2.965270 -47.791456 76.112000 -45.837231 -0.433383 6.532145 10.981803 -0.020061 -0.004041 -0.008905 -9.367179 -36.065909 -9.676545 -4.552639 73.737461 -6.165594 -12.106405 4.472832 -0.788818 0.002813 -0.002169 0.001249
127.402999 126.961410 15.337778 -12.596021 -28.897695 -2.725641 -2.364145 23.021879 1.477826 -0.374577 3.344819 0.271869 -0.598037 5.404106 0.428762 -1.997289 19.346675 1.321751 2.366259 9.720565 -1.387175 5.259339 -17.637696 -3.773083 -1.232358 -6.510151 -5.252961 2.169406 -10.271704 4.339847 -58.902357 -40.510981 87.762299 -7.838205 -25.225027 -18.691956 -7.304718 -5.546259 -1.207253 -1.168414 -2.943338 -1.679273 179.135232 -80.180763 166.688417 -19.786923 -31.027798 33.099490 -2.432426 -43.419235 2.983873 -47.877537 76.114864 -45.968216 -0.430404 6.542703 11.026671 -0.024831 -0.004736 -0.011022 -9.330710 -36.066358 -9.724421 -4.586854 73.742898 -6.147956 -12.096741 4.491327 -0.810868 0.001579 -0.000443 0.000701
127.403319 126.962828 15.335136 -12.587915 -28.903595 -2.726550 -2.374896 23.027870 1.468430 -0.381911 3.344712 0.267248 -0.600429 5.405729 0.425211 -1.987180 19.349052 1.315724 2.367803 9.731192 -1.356249 5.230257 -17.588133 -3.655916 -1.245761 -6.663431 -5.375007 2.124819 -10.140008 4.345324 -58.966249 -40.505554 87.906777 -7.813533 -25.236077 -18.732390 -7.316163 -5.664607 -1.118106 -1.123344 -2.886296 -1.688298 178.896688 -80.139140 166.871669 -19.808731 -31.039271 33.154354 -2.428744 -43.424579 2.999105 -47.979070 76.112468 -46.099921 -0.415061 6.568838 11.059241 -0.024466 -0.003179 -0.010860 -9.296710 -36.053468 -9.759722 -4.597710 73.742862 -6.114133 -12.097399 4.494571 -0.824379 0.000847 -0.000524 0.000376
127.404914 126.964224 15.332788 -12.587883 -28.913965 -2.716445 -2.385050 23.037967 1.451842 -0.390871 3.340545 0.262548 -0.603490 5.408131 0.421721 -1.995761 19.352202 1.301508 2.387034 9.742783 -1.325570 5.191174 -17.549749 -3.543542 -1.242103 -6.822683 -5.498255 2.093488 -10.003380 4.378897 -58.995597 -40.457318 88.001565 -7.738848 -25.276930 -18.747901 -7.313108 -5.756108 -1.038497 -1.077227 -2.854475 -1.677400 178.554485 -80.105875 167.145716 -19.823304 -31.047912 33.196692 -2.409530 -43.427220 2.998029 -48.079350 76.109930 -46.225571 -0.396454 6.596021 11.090670 -0.023932 -0.001144 -0.010624 -9.230022 -36.028150 -9.793831 -4.653387 73.732865 -6.129688 -12.115794 4.502944 -0.822586 0.001684 0.001429 0.000748
127.404935 126.964885 15.328784 -12.585534 -28.920701 -2.719146 -2.416635 23.026709 1.430152 -0.379781 3.349323 0.265437 -0.606454 5.410921 0.418301 -2.042896 19.358231 1.263520 2.400754 9.774801 -1.241929 5.205205 -17.539152 -3.488269 -1.207155 -6.982027 -5.609696 2.064925 -9.866321 4.410523 -59.023568 -40.403946 88.095950 -7.672802 -25.307777 -18.739834 -7.270981 -5.827780 -0.954044 -1.034048 -2.837335 -1.648867 178.107173 -80.075469 167.509409 -19.827865 -31.049431 33.218275 -2.398200 -43.436671 3.009507 -48.193288 76.103934 -46.358945 -0.367085 6.644124 11.120678 -0.020830 0.005343 -0.009248 -9.200916 -36.016104 -9.787534 -4.702372 73.728042 -6.172826 -12.120463 4.538780 -0.825969 0.003144 0.004991 0.001396
